<svg xmlns="http://www.w3.org/2000/svg" viewBox="0 0 64 64"><defs><style>.cls-1{fill:silver;}.cls-2{fill:#dedef2;}.cls-3{fill:#f79341;}.cls-4{fill:#ffb248;}.cls-5{fill:#5b97c4;}.cls-6{fill:#8cbce7;}.cls-7{fill:#2b2b4c;}</style></defs><title>Salesman Insurance</title><g id="Salesman_Insurance" data-name="Salesman Insurance"><path class="cls-1" d="M53,48.92V59H11V48.92A12.91,12.91,0,0,1,23.92,36H40.08a12.84,12.84,0,0,1,7.21,2.2h0A12.89,12.89,0,0,1,53,48.92Z"/><path class="cls-2" d="M49.5,45.42h0A10.08,10.08,0,0,1,39.42,55.5H11V48.92A12.91,12.91,0,0,1,23.92,36H40.08a12.84,12.84,0,0,1,7.21,2.2h0A12.84,12.84,0,0,1,49.5,45.42Z"/><path class="cls-3" d="M45,9.59v10.1A17.11,17.11,0,0,1,32,36a18.17,18.17,0,0,1-6.27-3.07,17.19,17.19,0,0,1-4.79-5.55A16.19,16.19,0,0,1,19,19.69V9.59L32,5,42,8.53Z"/><path class="cls-4" d="M42,8.53v7.16A17.11,17.11,0,0,1,29,32a18.17,18.17,0,0,1-6.27-3.07,16.73,16.73,0,0,1-1.79-1.55A16.19,16.19,0,0,1,19,19.69V9.59L32,5Z"/><polygon class="cls-5" points="37 36 35 41 29 41 28.2 39 27 36 37 36"/><path class="cls-6" d="M34.2,36h0a4.77,4.77,0,0,1-4.43,3H28.2L27,36Z"/><polygon class="cls-5" points="37 55 31.96 59 29.22 56.79 27 55 29 41 35 41 37 55"/><polygon class="cls-6" points="34 53 29.22 56.79 27 55 29 41 32.29 41 34 53"/><path class="cls-7" d="M53,60H11a1,1,0,0,1-1-1V48.92A13.93,13.93,0,0,1,23.92,35H40.08a13.7,13.7,0,0,1,4.26.67,1,1,0,1,1-.6,1.9A12,12,0,0,0,40.08,37H23.92A11.94,11.94,0,0,0,12,48.92V58H52V48.92a11.89,11.89,0,0,0-5.09-9.76,1,1,0,1,1,1.14-1.64,13.9,13.9,0,0,1,6,11.4V59A1,1,0,0,1,53,60Z"/><path class="cls-7" d="M32,37a1.15,1.15,0,0,1-.26,0,19.06,19.06,0,0,1-6.61-3.24A17.48,17.48,0,0,1,18,20a1,1,0,0,1,1-1,1,1,0,0,1,1,1,15.52,15.52,0,0,0,6.32,12.15A17.15,17.15,0,0,0,32,35,16.17,16.17,0,0,0,44,19.69V10.3L32,6.06,20,10.3V16a1,1,0,0,1-2,0V9.59a1,1,0,0,1,.67-.94l13-4.59a.94.94,0,0,1,.66,0l13,4.59a1,1,0,0,1,.67.94v10.1A18.2,18.2,0,0,1,32.26,37,1.09,1.09,0,0,1,32,37Z"/><path class="cls-7" d="M31,25a1,1,0,0,1-.71-.29l-4-4a1,1,0,0,1,1.42-1.42L31,22.59l7.29-7.3a1,1,0,0,1,1.42,1.42l-8,8A1,1,0,0,1,31,25Z"/><path class="cls-7" d="M35,42H29a1,1,0,0,1-.93-.63l-2-5a1,1,0,0,1,.1-.93A1,1,0,0,1,27,35H37a1,1,0,0,1,.83.44,1,1,0,0,1,.1.93l-2,5A1,1,0,0,1,35,42Zm-5.32-2h4.64l1.2-3h-7Z"/><path class="cls-7" d="M32,60a1,1,0,0,1-.63-.22l-5-4a1,1,0,0,1-.36-.92l2-14A1,1,0,0,1,29,40h6a1,1,0,0,1,1,.86l1,7a1,1,0,1,1-2,.28L34.13,42H29.87l-1.8,12.58L32,57.72l4-3.15-.36-2.51a1,1,0,1,1,2-.28L38,54.86a1,1,0,0,1-.37.92l-5,4A1,1,0,0,1,32,60Z"/></g></svg>