<?xml version="1.0" encoding="utf-8"?>
<!-- Generator: Adobe Illustrator 21.1.0, SVG Export Plug-In . SVG Version: 6.00 Build 0)  -->
<svg version="1.1" id="Capa_1" xmlns="http://www.w3.org/2000/svg" xmlns:xlink="http://www.w3.org/1999/xlink" x="0px" y="0px"
	 viewBox="0 0 203 128" enable-background="new 0 0 203 128" xml:space="preserve">
<g>
	<path fill="#609BB5" d="M157.5,124.4h-7.1v-2.5h4.6v-1.4h2.5V124.4z M144.6,124.4h-5.8v-2.5h5.8V124.4z M135.2,122.1h-2.5v-5.8h2.5
		V122.1z M157.5,114.6H155v-5.8h2.5V114.6z M135.2,110.4h-2.5v-5.8h2.5V110.4z M157.5,102.9H155v-5.8h2.5V102.9z M135.2,98.7h-2.5
		v-5.8h2.5V98.7z M157.5,91.3H155v-5.8h2.5V91.3z M135.2,87h-2.5v-5.8h2.5V87z M157.5,79.6H155v-5.8h2.5V79.6z M135.2,75.3h-2.5
		v-5.8h2.5V75.3z M157.5,67.9H155V62h2.5V67.9z M135.2,63.7h-2.5v-5.8h2.5V63.7z M157.5,56.2H155v-5.8h2.5V56.2z M135.2,52h-2.5
		v-5.8h2.5V52z M157.5,44.5H155v-5.8h2.5V44.5z M135.2,40.3h-2.5v-5.8h2.5V40.3z M157.5,32.8H155V27h2.5V32.8z M135.2,28.6h-2.5
		v-5.8h2.5V28.6z M157.5,21.1H155v-5.6h0.9v-1.2h1.5V21.1z M135.2,16.9h-2.5v-2.6h5.8v2.5L135.2,16.9L135.2,16.9z M150.1,16.8h-5.8
		v-2.5h5.8V16.8z"/>
	<path fill="#609BB5" d="M151.7,47.4h-3.6V45h2.3v1h1.2V47.4z M145.8,47.4h-2.3V45h2.3V47.4z M141.1,47.4h-2.6v-2.2h1.2V45h1.4V47.4
		z M151.7,43.6h-2.5v-2.3h2.5V43.6z M141,42.9h-2.5v-2.3h2.5V42.9z M151.7,38.9h-2.5v-2.3h2.5V38.9z M141,38.2h-2.5v-2.3h2.5V38.2z
		 M151.7,34.2h-2.5v-2.3h2.5V34.2z M141,33.5h-2.5v-2.3h2.5V33.5z M151.7,29.5h-2.5v-2.3h2.5V29.5z M141,28.8h-2.5v-2.3h2.5V28.8z
		 M149,27.6h-2.3v-2.5h2.3V27.6z M144.3,27.6h-2.3v-2.5h2.3V27.6z"/>
	<path fill="#609BB5" d="M184.8,124.4h-7.1v-2.5h4.6v-1.4h2.5V124.4z M171.9,124.4H166v-2.5h5.8V124.4z M162.5,122.1H160v-5.8h2.5
		V122.1z M184.8,114.6h-2.5v-5.8h2.5V114.6z M162.5,110.4H160v-5.8h2.5V110.4z M184.8,102.9h-2.5v-5.8h2.5V102.9z M162.5,98.7H160
		v-5.8h2.5V98.7z M184.8,91.3h-2.5v-5.8h2.5V91.3z M162.5,87H160v-5.8h2.5V87z M184.8,79.6h-2.5v-5.8h2.5V79.6z M162.5,75.3H160
		v-5.8h2.5V75.3z M184.8,67.9h-2.5V62h2.5V67.9z M162.5,63.7H160v-5.8h2.5V63.7z M184.8,56.2h-2.5v-5.8h2.5V56.2z M162.5,52H160
		v-5.8h2.5V52z M184.8,44.5h-2.5v-5.8h2.5V44.5z M162.5,40.3H160v-5.8h2.5V40.3z M184.8,32.8h-2.5V27h2.5V32.8z M162.5,28.6H160
		v-5.8h2.5V28.6z M184.8,21.1h-2.5v-5.6h0.9v-1.2h1.5V21.1z M162.5,16.9H160v-2.6h5.8v2.5L162.5,16.9L162.5,16.9z M177.4,16.8h-5.8
		v-2.5h5.8V16.8z"/>
	<path fill="#609BB5" d="M179,47.4h-3.6V45h2.3v1h1.2V47.4z M173.1,47.4h-2.3V45h2.3V47.4z M168.4,47.4h-2.6v-2.2h1.2V45h1.4V47.4z
		 M179,43.6h-2.5v-2.3h2.5V43.6z M168.3,42.9h-2.5v-2.3h2.5V42.9z M179,38.9h-2.5v-2.3h2.5V38.9z M168.3,38.2h-2.5v-2.3h2.5V38.2z
		 M179,34.2h-2.5v-2.3h2.5V34.2z M168.3,33.5h-2.5v-2.3h2.5V33.5z M179,29.5h-2.5v-2.3h2.5V29.5z M168.3,28.8h-2.5v-2.3h2.5V28.8z
		 M176.3,27.6h-2.3v-2.5h2.3V27.6z M171.6,27.6h-2.3v-2.5h2.3V27.6z"/>
	<path fill="#609BB5" d="M27.6,28.3c1.9,22.1,2.1,44.4,0.7,66.5c-0.3,5.4-1.1,11.4-5.2,14.8c-2.5,2.1-6.5,4-5.7,7.1
		c0.6,2.3,3.4,3.1,5.8,3.5c4.3,0.6,9.6,0.9,12.2-2.7c1.4-2,1.5-4.7,1.5-7.1c-0.1-19.6-0.2-39.2-0.2-58.7c0-8.9,1.3-19.1-0.2-28
		c-0.5-2.8-1.3-5.6-4.7-5.1C27.1,19.1,27.3,25,27.6,28.3z"/>
	<path fill="#609BB5" d="M40.6,112.5c0,1.9,2.7,2.7,4.3,1.6c1.6-1.1,2.1-3.1,2.4-4.9c4.4-22.8-1-46.1-1.4-69.3
		c-0.1-7,0.4-14.5,4.7-20c2.4,29.8,1.5,59.7,0.6,89.5c-0.1,2.1-0.2,4.4-1.1,6.3c-1.8,3.6-6.9,5-10.3,2.8"/>
	<path fill="#609BB5" d="M54.4,115.2c4.1,0,8.3,0,12.4-0.1c2.3,0,5-0.2,6.4-2c1-1.3,1.1-3,1.2-4.6c0.8-17.9,1.6-35.9,2.4-53.8
		c0.3-7.6,0.7-15.3-0.8-22.8c2,0,3.7,1.5,4.4,3.4c0.8,1.8,0.8,3.9,0.7,5.8c-0.2,26.5-0.4,53-0.6,79.5c-9.9,0.6-19.9,0.4-29.9-0.6"/>
	<path fill="#609BB5" d="M100.8,65.5c1.8,9.3,3.7,18.6,5.5,27.9c1.6,8,2.9,17-2,23.5c2.3,1.1,4.7,2.3,7.2,2.3c2.5,0,5.3-1.5,5.8-4
		c0.2-1,0-2.1-0.2-3.1c-3.2-17.9-6.3-35.9-10.3-53.6c-1.6-7.3-3.4-14.5-5.3-21.7c-1.1-4.3-2.2-16.2-6.7-18.4
		c-3.6-1.8-5.9,3.5-4.6,6.4c1,2.2,2.8,3.1,3.6,5.7c1,3.5,1.5,7.2,2.2,10.8C97.7,49.4,99.2,57.5,100.8,65.5z"/>
	<g>
		<path fill="#1A3366" d="M121,116.9L97.9,17.3c-0.1-0.6-0.5-1.1-1.1-1.5c-0.5-0.3-1.2-0.4-1.8-0.3l-14.3,3.3
			c-1.3,0.3-2.1,1.6-1.8,2.9l2.1,9H55.2V23c0-3.8-3.1-6.8-6.8-6.8h-5.7c-1.7,0-3.2,0.6-4.4,1.6c-1.2-1-2.6-1.6-4.3-1.6H19.6
			c-3.6,0-6.6,2.9-6.6,6.6v93.8c0,3.6,2.9,6.6,6.6,6.6H34c1.6,0,3.1-0.6,4.3-1.6c1.2,1,2.7,1.6,4.4,1.6h5.7c1,0,2-0.2,2.9-0.6
			c0.4,0.4,1,0.6,1.6,0.6h29c1.3,0,2.4-1.1,2.4-2.4V44.2l17.9,77.1c0.1,0.6,0.5,1.1,1.1,1.5c0.4,0.2,0.8,0.4,1.3,0.4
			c0.2,0,0.4,0,0.5-0.1l14.3-3.3C120.5,119.4,121.3,118.2,121,116.9z M17.8,37h18v11.4h-18V37z M40.6,83.1h9.9v20h-9.9V83.1z
			 M42.6,20.9h5.7c1.1,0,2.1,0.9,2.1,2.1v10.1v46.3h-9.9V23C40.6,21.8,41.5,20.9,42.6,20.9z M19.6,20.9H34c1,0,1.8,0.8,1.8,1.8V23
			v10.4h-18V22.7C17.8,21.7,18.6,20.9,19.6,20.9z M35.8,116.5c0,1-0.8,1.8-1.8,1.8H19.6c-1,0-1.8-0.8-1.8-1.8V52h18v64.2V116.5z
			 M48.4,118.4h-5.7c-1.2,0-2.1-0.9-2.1-2.1v-9.6h9.9v9.6C50.4,117.4,49.5,118.4,48.4,118.4z M79.4,118.4H55.2v-2.1V35.5h24.2V118.4
			z M97.8,38l0.6,2.4l-9.6,2.4l-0.6-2.4L97.8,38z M87.4,36.8l-0.6-2.4l9.6-2.4l0.6,2.4L87.4,36.8z M93.8,20.7l1.8,7.7L86,30.8
			L84.2,23L93.8,20.7z M106.2,117.9L89.6,46.2l9.6-2.4l16.7,71.7L106.2,117.9z"/>
		<path fill="#1A3366" d="M67.3,63.2c4.7,0,8.5-4.7,8.5-10.5S72,42.2,67.3,42.2s-8.5,4.7-8.5,10.5S62.7,63.2,67.3,63.2z M67.3,45.8
			c2.6,0,4.8,3.2,4.8,6.9c0,3.7-2.2,6.9-4.8,6.9s-4.8-3.2-4.8-6.9C62.5,49,64.7,45.8,67.3,45.8z"/>
	</g>
</g>
</svg>
