<?xml version="1.0" encoding="utf-8"?>
<!-- Generator: Adobe Illustrator 21.1.0, SVG Export Plug-In . SVG Version: 6.00 Build 0)  -->
<svg version="1.1" id="Capa_1" xmlns="http://www.w3.org/2000/svg" xmlns:xlink="http://www.w3.org/1999/xlink" x="0px" y="0px"
	 viewBox="0 0 175 128" enable-background="new 0 0 175 128" xml:space="preserve">
<g>
	<g>
		<path fill="#609BB5" d="M37.8,41.9c2.7-4,1.5-9.3-0.1-13.8c-1.7-4.5-3.8-9.2-2.7-13.8c2.5-2.1,6.5-0.5,8.2,2.3
			c1.6,2.8,1.6,6.2,1.4,9.4c-0.4,8.8-0.7,17.6-1.1,26.4c-7.8,0.2-15.6,0.5-23.5,0.7c-2.9,0.1-12.5,2.1-10.7-2.9
			C12.7,40.5,31.7,50.8,37.8,41.9z"/>
		<g>
			<g>
				<path fill="#1A3366" d="M44,5.7c0,0,0.1,0,0.1-0.1c0.1,0,0.2-0.1,0.2-0.1c0,0,0.1-0.1,0.1-0.1c0.1-0.1,0.1-0.1,0.2-0.2
					c0,0,0-0.1,0.1-0.1c0-0.1,0.1-0.3,0.1-0.4c0-0.6-0.5-1.1-1.1-1.1H11c-2.8,0-5,2.3-5,5.1v38.5c0,4.2,3.4,7.6,7.6,7.6h30.1
					c0.6,0,1.1-0.5,1.1-1.1v-41c0-0.1,0-0.3-0.1-0.4c0,0,0-0.1-0.1-0.1c0-0.1-0.1-0.2-0.2-0.2c0,0-0.1-0.1-0.1-0.1
					c-0.1-0.1-0.1-0.1-0.2-0.1c0,0-0.1,0-0.1-0.1c0,0,0,0-0.1,0c-0.2-0.3-0.5-1.4-0.5-2.9C43.5,7.1,43.8,6.1,44,5.7
					C44,5.7,44,5.7,44,5.7z M41.2,8.9H10.3V8.3h30.9c0,0.1,0,0.2,0,0.3C41.2,8.7,41.2,8.8,41.2,8.9z M10.3,10.6h31.1
					c0,0.3,0.1,0.6,0.2,0.8H11c-0.2,0-0.4,0-0.7-0.1V10.6z M41.6,5.8c-0.1,0.3-0.1,0.5-0.2,0.8H10.3V5.9c0.2-0.1,0.4-0.1,0.7-0.1
					H41.6z M13.5,52.4c-2.9,0-5.3-2.4-5.3-5.3V12.8c0.8,0.5,1.8,0.8,2.8,0.8h31.5v38.8H13.5z"/>
				<path fill="#1A3366" d="M32.2,18.2H18.5c-1.3,0-2.4,1.1-2.4,2.4v7.2c0,1.3,1.1,2.4,2.4,2.4h13.8c1.3,0,2.4-1.1,2.4-2.4v-7.2
					C34.7,19.3,33.6,18.2,32.2,18.2z M32.9,27.9c0,0.4-0.3,0.7-0.7,0.7H18.5c-0.4,0-0.7-0.3-0.7-0.7v-7.2c0-0.4,0.3-0.7,0.7-0.7
					h13.8c0.4,0,0.7,0.3,0.7,0.7V27.9z"/>
			</g>
		</g>
		<path fill="#609BB5" d="M84.9,47.7c5.3,0.9,10.6-1.5,15.5-3.8c0.7,2.9,1.5,5.7,2.2,8.6c-8,0.3-16,0.6-23.9,0.9
			c-2.4,0.1-5,0.1-7.1-1c-4.3-2.3-4.7-7.9-4.9-12.2c-0.1-2.7-1.6-13.6,1.7-12.6c3.4,1,4,9.5,5.8,12.3C76.6,43.7,80.3,46.8,84.9,47.7
			z"/>
		<path fill="#1A3366" d="M103.8,5.7c0,0,0.1,0,0.1-0.1c0.1,0,0.2-0.1,0.2-0.1c0,0,0.1-0.1,0.1-0.1c0.1-0.1,0.1-0.1,0.2-0.2
			c0,0,0-0.1,0.1-0.1c0-0.1,0.1-0.3,0.1-0.4c0-0.6-0.5-1.1-1.1-1.1H70.7c-2.8,0-5.1,2.3-5.1,5.1v38.5c0,4.2,3.4,7.6,7.6,7.6h30.2
			c0.6,0,1.1-0.5,1.1-1.1V12.5c0-0.1,0-0.3-0.1-0.4c0,0,0-0.1-0.1-0.1c0-0.1-0.1-0.2-0.2-0.2c0,0-0.1-0.1-0.1-0.1
			c-0.1-0.1-0.1-0.1-0.2-0.1c0,0-0.1,0-0.1-0.1c0,0,0,0-0.1,0c-0.2-0.3-0.5-1.4-0.5-2.9C103.3,7.1,103.6,6,103.8,5.7
			C103.8,5.7,103.8,5.7,103.8,5.7z M81.3,9.5v14.7l-2-1.4c-0.1-0.1-0.3-0.1-0.5-0.1c-0.2,0-0.3,0-0.5,0.1l-2,1.4V9.5H81.3z
			 M70.1,10.6h4.5v0.8h-3.8c-0.2,0-0.4,0-0.7-0.1V10.6z M74.6,8.6v0.3h-4.5V8.3h4.6C74.6,8.4,74.6,8.5,74.6,8.6z M101,8.9h-18V8.6
			c0-0.1,0-0.2-0.1-0.3h18c0,0.1,0,0.2,0,0.3C101,8.7,101,8.8,101,8.9z M83.1,10.6h18.1c0,0.3,0.1,0.6,0.2,0.8H83.1V10.6z
			 M101.4,5.7c-0.1,0.3-0.1,0.5-0.2,0.8H70.1V5.8c0.2-0.1,0.4-0.1,0.7-0.1H101.4z M73.3,52.5c-2.9,0-5.3-2.4-5.3-5.3V12.8
			c0.8,0.5,1.8,0.9,2.8,0.9h3.8v12.1c0,0.3,0.2,0.6,0.5,0.8c0.1,0.1,0.3,0.1,0.4,0.1c0.2,0,0.3,0,0.5-0.1l2.9-1.9l2.9,1.9
			c0.3,0.2,0.6,0.2,0.9,0c0.3-0.1,0.5-0.4,0.5-0.8V13.7h19.3v38.8H73.3z"/>
		<path opacity="0.23" fill="#609BB5" d="M158.1,41.9c2.7-4,1.5-9.3-0.1-13.8c-1.7-4.5-3.8-9.2-2.7-13.8c2.5-2.1,6.5-0.5,8.2,2.3
			c1.6,2.8,1.6,6.2,1.4,9.4c-0.4,8.8-0.7,17.6-1.1,26.4c-7.8,0.2-15.6,0.5-23.5,0.7c-2.9,0.1-12.5,2.1-10.7-2.9
			C133,40.5,152,50.8,158.1,41.9z"/>
		<g opacity="0.23">
			<g>
				<path fill="#1A3366" d="M164.3,5.7c0,0,0.1,0,0.1-0.1c0.1,0,0.2-0.1,0.2-0.1c0,0,0.1-0.1,0.1-0.1c0.1-0.1,0.1-0.1,0.2-0.2
					c0,0,0-0.1,0.1-0.1c0-0.1,0.1-0.3,0.1-0.4c0-0.6-0.5-1.1-1.1-1.1h-32.7c-2.8,0-5,2.3-5,5.1v38.5c0,4.2,3.4,7.6,7.6,7.6h30.1
					c0.6,0,1.1-0.5,1.1-1.1v-41c0-0.1,0-0.3-0.1-0.4c0,0,0-0.1-0.1-0.1c0-0.1-0.1-0.2-0.2-0.2c0,0-0.1-0.1-0.1-0.1
					c-0.1-0.1-0.1-0.1-0.2-0.1c0,0-0.1,0-0.1-0.1c0,0,0,0-0.1,0c-0.2-0.3-0.5-1.4-0.5-2.9C163.8,7.1,164.1,6.1,164.3,5.7
					C164.3,5.7,164.3,5.7,164.3,5.7z M161.5,8.9h-30.9V8.3h30.9c0,0.1,0,0.2,0,0.3C161.5,8.7,161.5,8.8,161.5,8.9z M130.6,10.6h31.1
					c0,0.3,0.1,0.6,0.2,0.8h-30.6c-0.2,0-0.4,0-0.7-0.1V10.6z M161.9,5.8c-0.1,0.3-0.1,0.5-0.2,0.8h-31.1V5.9
					c0.2-0.1,0.4-0.1,0.7-0.1H161.9z M133.8,52.4c-2.9,0-5.3-2.4-5.3-5.3V12.8c0.8,0.5,1.8,0.8,2.8,0.8h31.5v38.8H133.8z"/>
				<path fill="#1A3366" d="M152.5,18.2h-13.8c-1.3,0-2.4,1.1-2.4,2.4v7.2c0,1.3,1.1,2.4,2.4,2.4h13.8c1.3,0,2.4-1.1,2.4-2.4v-7.2
					C155,19.3,153.9,18.2,152.5,18.2z M153.3,27.9c0,0.4-0.3,0.7-0.7,0.7h-13.8c-0.4,0-0.7-0.3-0.7-0.7v-7.2c0-0.4,0.3-0.7,0.7-0.7
					h13.8c0.4,0,0.7,0.3,0.7,0.7V27.9z"/>
			</g>
		</g>
		<path opacity="0.13" fill="#609BB5" d="M37.8,107.2c2.7-4,1.5-9.3-0.1-13.8c-1.7-4.5-3.8-9.2-2.7-13.8c2.5-2.1,6.5-0.5,8.2,2.3
			c1.6,2.8,1.6,6.2,1.4,9.4c-0.4,8.8-0.7,17.6-1.1,26.4c-7.8,0.2-15.6,0.5-23.5,0.7c-2.9,0.1-12.5,2.1-10.7-2.9
			C12.7,105.8,31.7,116.1,37.8,107.2z"/>
		<g opacity="0.13">
			<g>
				<path fill="#1A3366" d="M44,71c0,0,0.1,0,0.1-0.1c0.1,0,0.2-0.1,0.2-0.1c0,0,0.1-0.1,0.1-0.1c0.1-0.1,0.1-0.1,0.2-0.2
					c0,0,0-0.1,0.1-0.1c0-0.1,0.1-0.3,0.1-0.4c0-0.6-0.5-1.1-1.1-1.1H11c-2.8,0-5,2.3-5,5.1v38.5c0,4.2,3.4,7.6,7.6,7.6h30.1
					c0.6,0,1.1-0.5,1.1-1.1v-41c0-0.1,0-0.3-0.1-0.4c0,0,0-0.1-0.1-0.1c0-0.1-0.1-0.2-0.2-0.2c0,0-0.1-0.1-0.1-0.1
					c-0.1-0.1-0.1-0.1-0.2-0.1c0,0-0.1,0-0.1-0.1c0,0,0,0-0.1,0c-0.2-0.3-0.5-1.4-0.5-2.9C43.5,72.4,43.8,71.3,44,71
					C44,71,44,71,44,71z M41.2,74.2H10.3v-0.6h30.9c0,0.1,0,0.2,0,0.3C41.2,74,41.2,74.1,41.2,74.2z M10.3,75.9h31.1
					c0,0.3,0.1,0.6,0.2,0.8H11c-0.2,0-0.4,0-0.7-0.1V75.9z M41.6,71c-0.1,0.3-0.1,0.5-0.2,0.8H10.3v-0.7c0.2-0.1,0.4-0.1,0.7-0.1
					H41.6z M13.5,117.7c-2.9,0-5.3-2.4-5.3-5.3V78.1C9,78.6,9.9,79,11,79h31.5v38.8H13.5z"/>
				<path fill="#1A3366" d="M32.2,83.5H18.5c-1.3,0-2.4,1.1-2.4,2.4v7.2c0,1.3,1.1,2.4,2.4,2.4h13.8c1.3,0,2.4-1.1,2.4-2.4v-7.2
					C34.7,84.6,33.6,83.5,32.2,83.5z M32.9,93.1c0,0.4-0.3,0.7-0.7,0.7H18.5c-0.4,0-0.7-0.3-0.7-0.7v-7.2c0-0.4,0.3-0.7,0.7-0.7
					h13.8c0.4,0,0.7,0.3,0.7,0.7V93.1z"/>
			</g>
		</g>
		<path fill="#609BB5" d="M84.9,112.9c5.3,0.9,10.6-1.5,15.5-3.8c0.7,2.9,1.5,5.7,2.2,8.6c-8,0.3-16,0.6-23.9,0.9
			c-2.4,0.1-5,0.1-7.1-1c-4.3-2.3-4.7-7.9-4.9-12.2c-0.1-2.7-1.6-13.6,1.7-12.6c3.4,1,4,9.5,5.8,12.3
			C76.6,109,80.3,112.1,84.9,112.9z"/>
		<path fill="#1A3366" d="M103.8,70.9c0,0,0.1,0,0.1-0.1c0.1,0,0.2-0.1,0.2-0.1c0,0,0.1-0.1,0.1-0.1c0.1-0.1,0.1-0.1,0.2-0.2
			c0,0,0-0.1,0.1-0.1c0-0.1,0.1-0.3,0.1-0.4c0-0.6-0.5-1.1-1.1-1.1H70.7c-2.8,0-5.1,2.3-5.1,5.1v38.5c0,4.2,3.4,7.6,7.6,7.6h30.2
			c0.6,0,1.1-0.5,1.1-1.1V77.8c0-0.1,0-0.3-0.1-0.4c0,0,0-0.1-0.1-0.1c0-0.1-0.1-0.2-0.2-0.2c0,0-0.1-0.1-0.1-0.1
			c-0.1-0.1-0.1-0.1-0.2-0.1c0,0-0.1,0-0.1-0.1c0,0,0,0-0.1,0c-0.2-0.3-0.5-1.4-0.5-2.9C103.3,72.3,103.6,71.3,103.8,70.9
			C103.8,70.9,103.8,70.9,103.8,70.9z M81.3,74.7v14.7l-2-1.4c-0.1-0.1-0.3-0.1-0.5-0.1c-0.2,0-0.3,0-0.5,0.1l-2,1.4V74.7H81.3z
			 M70.1,75.9h4.5v0.8h-3.8c-0.2,0-0.4,0-0.7-0.1V75.9z M74.6,73.9v0.3h-4.5v-0.6h4.6C74.6,73.6,74.6,73.8,74.6,73.9z M101,74.1h-18
			v-0.3c0-0.1,0-0.2-0.1-0.3h18c0,0.1,0,0.2,0,0.3S101,74,101,74.1z M83.1,75.9h18.1c0,0.3,0.1,0.6,0.2,0.8H83.1V75.9z M101.4,71
			c-0.1,0.3-0.1,0.5-0.2,0.8H70.1v-0.7c0.2-0.1,0.4-0.1,0.7-0.1H101.4z M73.3,117.8c-2.9,0-5.3-2.4-5.3-5.3V78.1
			c0.8,0.5,1.8,0.9,2.8,0.9h3.8v12.1c0,0.3,0.2,0.6,0.5,0.8c0.1,0.1,0.3,0.1,0.4,0.1c0.2,0,0.3,0,0.5-0.1l2.9-1.9l2.9,1.9
			c0.3,0.2,0.6,0.2,0.9,0c0.3-0.1,0.5-0.4,0.5-0.8V78.9h19.3v38.8H73.3z"/>
		<path fill="#609BB5" d="M158.1,107.2c2.7-4,1.5-9.3-0.1-13.8c-1.7-4.5-3.8-9.2-2.7-13.8c2.5-2.1,6.5-0.5,8.2,2.3
			c1.6,2.8,1.6,6.2,1.4,9.4c-0.4,8.8-0.7,17.6-1.1,26.4c-7.8,0.2-15.6,0.5-23.5,0.7c-2.9,0.1-12.5,2.1-10.7-2.9
			C133,105.8,152,116.1,158.1,107.2z"/>
		<g>
			<g>
				<path fill="#1A3366" d="M164.3,71c0,0,0.1,0,0.1-0.1c0.1,0,0.2-0.1,0.2-0.1c0,0,0.1-0.1,0.1-0.1c0.1-0.1,0.1-0.1,0.2-0.2
					c0,0,0-0.1,0.1-0.1c0-0.1,0.1-0.3,0.1-0.4c0-0.6-0.5-1.1-1.1-1.1h-32.7c-2.8,0-5,2.3-5,5.1v38.5c0,4.2,3.4,7.6,7.6,7.6h30.1
					c0.6,0,1.1-0.5,1.1-1.1v-41c0-0.1,0-0.3-0.1-0.4c0,0,0-0.1-0.1-0.1c0-0.1-0.1-0.2-0.2-0.2c0,0-0.1-0.1-0.1-0.1
					c-0.1-0.1-0.1-0.1-0.2-0.1c0,0-0.1,0-0.1-0.1c0,0,0,0-0.1,0c-0.2-0.3-0.5-1.4-0.5-2.9C163.8,72.4,164.1,71.3,164.3,71
					C164.3,71,164.3,71,164.3,71z M161.5,74.2h-30.9v-0.6h30.9c0,0.1,0,0.2,0,0.3C161.5,74,161.5,74.1,161.5,74.2z M130.6,75.9h31.1
					c0,0.3,0.1,0.6,0.2,0.8h-30.6c-0.2,0-0.4,0-0.7-0.1V75.9z M161.9,71c-0.1,0.3-0.1,0.5-0.2,0.8h-31.1v-0.7
					c0.2-0.1,0.4-0.1,0.7-0.1H161.9z M133.8,117.7c-2.9,0-5.3-2.4-5.3-5.3V78.1c0.8,0.5,1.8,0.8,2.8,0.8h31.5v38.8H133.8z"/>
				<path fill="#1A3366" d="M152.5,83.5h-13.8c-1.3,0-2.4,1.1-2.4,2.4v7.2c0,1.3,1.1,2.4,2.4,2.4h13.8c1.3,0,2.4-1.1,2.4-2.4v-7.2
					C155,84.6,153.9,83.5,152.5,83.5z M153.3,93.1c0,0.4-0.3,0.7-0.7,0.7h-13.8c-0.4,0-0.7-0.3-0.7-0.7v-7.2c0-0.4,0.3-0.7,0.7-0.7
					h13.8c0.4,0,0.7,0.3,0.7,0.7V93.1z"/>
			</g>
		</g>
	</g>
</g>
</svg>
