<?xml version="1.0" encoding="utf-8"?>
<!-- Generator: Adobe Illustrator 21.1.0, SVG Export Plug-In . SVG Version: 6.00 Build 0)  -->
<svg version="1.1" id="Capa_1" xmlns="http://www.w3.org/2000/svg" xmlns:xlink="http://www.w3.org/1999/xlink" x="0px" y="0px"
	 viewBox="0 0 145 128" enable-background="new 0 0 145 128" xml:space="preserve">
<g>
	<path fill="#609BB5" d="M23.4,20.5c-2.8,6.4-2.5,13.7-2.1,20.7c0.6,10.8,1.2,21.5,1.8,32.3c0.1,1.5,0.2,3,0.9,4.2
		c1.6,2.6,5.1,2.9,8.1,2.9c11.7,0.1,23.4,0.2,35.1,0.3c4,0,8.1,0.1,11.8,1.6c3.7,1.5,6.9,4.8,7.1,8.8c-24.3,0.1-48.6,0.3-73,0.4
		c-2.8-19.5-3.8-39.2-3-58.9c0.2-5.5,0.7-11.2,3.9-15.7c2.9-4.1,7.9-6.4,12.8-7.3c3-0.5,6.2-0.7,9.2-0.4
		C31.4,13.4,26.2,14,23.4,20.5z"/>
	<g>
		<path fill="#1A3366" d="M20.5,109.1h33.2v13.2c0,0.6,0.3,1.2,0.9,1.5c0.6,0.3,1.2,0.3,1.7-0.1l5.7-3.8l5.7,3.8
			c0.3,0.2,0.6,0.3,0.9,0.3c0.3,0,0.6-0.1,0.8-0.2c0.6-0.3,0.9-0.9,0.9-1.5v-13.2H85c1.2,0,2.2-1,2.2-2.2c0-1.1-0.8-2-1.8-2.1
			c-0.6-0.9-1.3-2.6-1.3-5.7c0-2.7,0.4-4.6,1.1-5.6c1.1-0.1,2-1,2-2.2v-81C87.3,9,86.3,8,85,8H25.5c-8.2,0-15,6.7-15,15v76
			c0,0,0,0,0,0.1c0,0,0,0.1,0,0.1C10.6,104.6,15,109.1,20.5,109.1z M70.5,98.4h10.3c0,0.2,0,0.4,0,0.6c0,0.2,0,0.4,0,0.6H70.5V98.4z
			 M81.1,95H68.8H55.4H20.6v-1.6h60.9C81.3,93.9,81.2,94.5,81.1,95z M53.7,99.6H20.6v-1.2h33.2V99.6z M20.6,104.6V103h33.2v1.6H20.6
			z M67.1,119.1l-4-2.7c-0.3-0.2-0.6-0.3-0.9-0.3s-0.7,0.1-0.9,0.3l-4,2.7V98.4h10V119.1z M70.5,103h10.7c0.1,0.6,0.3,1.1,0.5,1.6
			H70.5V103z M25.5,12.4h57.3V89H20.5c-2,0-3.9,0.6-5.5,1.7V23C15,17.2,19.7,12.4,25.5,12.4z"/>
		<path fill="#1A3366" d="M35.3,50.7h27.2c2.7,0,4.8-2.2,4.8-4.8V31.5c0-2.7-2.2-4.8-4.8-4.8H35.3c-2.7,0-4.8,2.2-4.8,4.8v14.3
			C30.5,48.5,32.7,50.7,35.3,50.7z M33.9,31.5c0-0.8,0.6-1.4,1.4-1.4h27.2c0.8,0,1.4,0.6,1.4,1.4v14.3c0,0.8-0.6,1.4-1.4,1.4H35.3
			c-0.8,0-1.4-0.6-1.4-1.4V31.5z"/>
	</g>
	<g>
		<g>
			<path fill="#FFFFFF" d="M120.9,56.1l-48.2,10c-7.9,1.6-15.6-3.4-17.2-11.3l-4.3-20.8c-1.6-7.9,3.4-15.6,11.3-17.2l48.2-10
				c7.9-1.6,15.6,3.4,17.2,11.3l4.3,20.8C133.8,46.8,128.8,54.5,120.9,56.1z"/>
			<path fill="#1A3366" d="M69.7,68c-3.1,0-6.2-0.9-8.9-2.7c-3.6-2.4-6.1-6-7-10.2l-4.3-20.8c-0.9-4.2,0-8.5,2.3-12.2
				c2.4-3.6,6-6.1,10.2-7l48.2-10c8.7-1.8,17.3,3.8,19.1,12.6l4.3,20.8c1.8,8.7-3.8,17.3-12.6,19.1L73,67.6
				C71.9,67.9,70.8,68,69.7,68z M113.6,8.1c-0.9,0-1.7,0.1-2.6,0.3l-48.2,10c-3.4,0.7-6.3,2.7-8.2,5.6c-1.9,2.9-2.6,6.3-1.9,9.7
				L57,54.4c0.7,3.4,2.7,6.3,5.6,8.2c2.9,1.9,6.3,2.6,9.7,1.9l48.2-10c7-1.4,11.5-8.3,10-15.3l-4.3-20.8
				C125,12.3,119.7,8.1,113.6,8.1z"/>
		</g>
		<g>
			<path fill="#1A3366" d="M75.3,38.4c-4.6,0.9-9.1-2-10-6.6s2-9.1,6.6-10c4.6-0.9,9.1,2,10,6.6S79.9,37.5,75.3,38.4z M72.2,23.6
				c-3.6,0.7-5.9,4.3-5.2,7.8s4.3,5.9,7.8,5.2s5.9-4.3,5.2-7.8C79.3,25.2,75.8,22.9,72.2,23.6z"/>
			<path fill="#609BB5" d="M67,48.7c-1.2,1-2.2,2.3-2.5,3.8c-0.3,1.5,0,3.3,1.2,4.3c1.1,1.1,3.1,1.3,4.3,0.4c1.4-1,1.5-3,2-4.6
				c0.7-2.6,2.3-5,4.4-6.6s4.9-2.5,7.6-2.4c0.3,0,0.7,0,1-0.1c0.3-0.1,0.5-0.5,0.4-0.8c-0.1-0.3-0.4-0.4-0.7-0.5
				c-4-1.1-8.4-0.9-12.2,0.6"/>
			<path fill="#1A3366" d="M91.7,52.6c-0.5,0.1-1-0.2-1.1-0.7c-1.4-6.6-7.9-10.9-14.5-9.6c-6.6,1.4-10.9,7.9-9.6,14.5
				c0.1,0.5-0.2,1-0.7,1.1c-0.5,0.1-1-0.2-1.1-0.7c-1.6-7.6,3.4-15.1,11-16.7s15.1,3.4,16.7,11C92.6,52.1,92.2,52.5,91.7,52.6z"/>
		</g>
		
			<rect x="92.6" y="17.8" transform="matrix(0.9793 -0.2022 0.2022 0.9793 -1.7456 22.0184)" fill="#1A3366" width="28.6" height="3.4"/>
		
			<rect x="94.3" y="24.8" transform="matrix(0.9793 -0.2022 0.2022 0.9793 -3.1145 22.511)" fill="#1A3366" width="28.6" height="3.4"/>
		
			<rect x="96" y="31.7" transform="matrix(0.9793 -0.2022 0.2022 0.9793 -4.4833 23.0036)" fill="#1A3366" width="28.6" height="3.4"/>
	</g>
</g>
</svg>
